<?xml version="1.0" encoding="UTF-8"?>
<svg width="256" height="256" viewBox="0 0 181.13208 181.13208"
    xmlns="http://www.w3.org/2000/svg">
    <g transform="translate(42.566036,42.566036)">
        <path d="M76,30.57l0.84,-0.84c0.65,-0.65 0,-2.35 0,-2.35a10.19,10.19 0,0 0,-2.37 -3.57,12.52 12.52,0 0,0 -3.87,-2.67s-1.7,-0.65 -2.35,0l-0.84,0.84c-9.81,-6.5 -26.36,-11.18 -42.27,-9.29 -1.37,0.16 -2.62,3.23 -1.32,3.47 5.55,1 15.46,5.12 24.35,10.84a69.08,69.08 0,0 1,8.07 6.15l-41,41c-4.29,4.29 4.3,12.89 8.59,8.59l41.05,-41A69.4,69.4 0,0 1,71 49.82c5.72,8.88 9.85,18.79 10.84,24.34 0.24,1.3 3.31,0 3.47,-1.32C87.22,56.93 82.54,40.38 76,30.57Z"
              fill="#000000" fill-opacity="0.05" stroke-opacity="0.05"/>
        <path d="M66.5489,24.9263l8.5913,8.5913l-1.3294,1.3294l-8.5913,-8.5913z"
              fill="#000000" fill-opacity="0.05" stroke-opacity="0.05"/>
        <path d="M77.53,24.71s0.65,1.7 0,2.35L22.85,81.74C18.56,86 10,77.44 14.26,73.15L68.94,18.47c0.65,-0.65 2.35,0 2.35,0a12.35,12.35 0,0 1,3.86 2.68A10.06,10.06 0,0 1,77.53 24.71Z"
              fill="#5a5a5a"/>
        <path d="M77.53,24.71s0.65,1.7 0,2.35L22.85,81.74C18.56,86 10,77.44 14.26,73.15L68.94,18.47c0.65,-0.65 2.35,0 2.35,0a12.35,12.35 0,0 1,3.86 2.68A10.06,10.06 0,0 1,77.53 24.71Z"
              fill="#6a6a6a"/>
        <g>
            <defs>
                <clipPath id="clip-path">
                    <path d="M77.53,24.71s0.65,1.7 0,2.35L22.85,81.74C18.56,86 10,77.44 14.26,73.15L68.94,18.47c0.65,-0.65 2.35,0 2.35,0a12.35,12.35 0,0 1,3.86 2.68A10.06,10.06 0,0 1,77.53 24.71Z M 0,0"/>
                </clipPath>
            </defs>
            <path d="M77.82,28s-1.88,-6.43 -6.69,-7c-2.51,-0.32 -5.19,3.35 -6.56,4.54S12.46,78.33 10.71,79s-2,-3.21 -2,-4.21S67.34,12.62 69.47,12.5s12,6.62 11.25,10.62S77.82,28 77.82,28Z"
                  fill="#7a7a7a" fill-opacity="0.1" stroke-opacity="0.1" clip-path="url(#clip-path)"/>
        </g>
        <path d="M86,70.17c2.24,-18.9 -4.79,-38.71 -13.11,-47S44.73,7.78 25.83,10c-1.37,0.16 -2.63,3.24 -1.32,3.47 5.55,1 15.46,5.12 24.34,10.85A76.82,76.82 0,0 1,61.37 34.63h0A76.82,76.82 0,0 1,71.66 47.15C77.39,56 81.52,65.94 82.51,71.49 82.74,72.8 85.82,71.54 86,70.17Z"
              fill="#8a8a8a"/>
        <path d="M82.5,71.43s0,0 0,0.06c0.23,1.31 3.31,0.05 3.47,-1.32 2.24,-18.9 -4.79,-38.71 -13.11,-47S44.73,7.78 25.83,10c-1.37,0.16 -2.63,3.24 -1.32,3.47h0.07c18.14,-1.39 36.62,5.37 44.59,13.33S83.89,53.28 82.5,71.43Z"
              fill="#ffffff" fill-opacity="0.2" stroke-opacity="0.2"/>
        <path d="M82.66,67.64A87.57,87.57 0,0 0,72.53 46.28,76.82 76.82,0 0,0 62.24,33.76h0A76.82,76.82 0,0 0,49.72 23.47,87.57 87.57,0 0,0 28.36,13.34c-1.26,0 -2.52,0.07 -3.78,0.16h-0.07c5.55,1 15.46,5.12 24.34,10.85A76.82,76.82 0,0 1,61.37 34.63h0A76.82,76.82 0,0 1,71.66 47.15C77.39,56 81.52,65.94 82.51,71.49c0,0 0,0 0,-0.06C82.59,70.16 82.64,68.9 82.66,67.64Z"
              fill="#000000" fill-opacity="0.05" stroke-opacity="0.05"/>
    </g>
</svg>
